PathFileType	4	(X/Y/Z)	C:\Users\Vitor Bertoli\OneDrive\Documents\Yolotestes\IMG_0211_Sports2D\IMG_0211_Sports2D_m_person00.trc
DataRate	CameraRate	NumFrames	NumMarkers	Units	OrigDataRate	OrigDataStartFrame	OrigNumFrames
116	116	8	22	m	116	272	436
Frame#	Time	Hip			RHip			RKnee			RAnkle			RBigToe			RSmallToe			RHeel			LHip			LKnee			LAnkle			LBigToe			LSmallToe			LHeel			Neck			Head			Nose			RShoulder			RElbow			RWrist			LShoulder			LElbow			LWrist		
		X1	Y1	Z1	X2	Y2	Z2	X3	Y3	Z3	X4	Y4	Z4	X5	Y5	Z5	X6	Y6	Z6	X7	Y7	Z7	X8	Y8	Z8	X9	Y9	Z9	X10	Y10	Z10	X11	Y11	Z11	X12	Y12	Z12	X13	Y13	Z13	X14	Y14	Z14	X15	Y15	Z15	X16	Y16	Z16	X17	Y17	Z17	X18	Y18	Z18	X19	Y19	Z19	X20	Y20	Z20	X21	Y21	Z21	X22	Y22	Z22
272	2.3448275862068964	8.329541336777332	0.8926194499345544	0.0	8.286724758985175	0.9005588782120514	0.0	8.363373310973584	0.48919458926300025	0.0	8.11629657842018	0.13219180788577378	0.0	8.262424428592787	0.0043292707424551005	0.0	8.208857111684932	0.005100422272204674	0.0	8.044672614956946	0.10625607843009846	0.0	8.37036665910745	0.8982311316466134	0.0	8.534238258948172	0.5238997364836306	0.0	8.167175566613109	0.43294424160287065	0.0	8.152569799357048	0.29199091075510203	0.0	8.14623675730687	0.31993775396844987	0.0	8.095915740175817	0.45309353995605334	0.0	8.513836189399278	1.426704382269913	0.0	8.663578617364523	1.6549010166147156	0.0	8.676088987862931	1.5119456913874645	0.0	8.486333693669248	1.375328363497172	0.0	8.48712217328288	1.0893399559666275	0.0	8.711415468621876	1.0170523356175185	0.0	8.484588535382887	1.3843362120973208	0.0	8.300795689629895	1.1540902612895152	0.0	8.347962519264001	0.9707557666471729	0.0
273	2.353448275862069	8.380435070614926	0.8892916740537412	0.0	8.33160276615953	0.8970952169949159	0.0	8.384194231572387	0.4858826905824217	0.0	8.120882768870974	0.13714679393690682	0.0	8.2592695000844	0.0028524959060353136	0.0	8.203782640120115	0.006370054300089596	0.0	8.048045487907329	0.11250091768340187	0.0	8.430128471402897	0.89475817059223	0.0	8.6110129080503	0.5357480800693705	0.0	8.252496478939877	0.4181209671888264	0.0	8.256336105970991	0.27193307862258703	0.0	8.249394291888182	0.30338473791028403	0.0	8.179790021426296	0.43163297600613865	0.0	8.5606639168356	1.428426062949115	0.0	8.711893415078732	1.6583223858054106	0.0	8.723232574568156	1.514413048366124	0.0	8.542819843859633	1.3776608599178102	0.0	8.55323680852726	1.091432007321842	0.0	8.780822522485389	1.0423189639034733	0.0	8.525094991953472	1.3881032385756187	0.0	8.336204133594498	1.1619619894449982	0.0	8.363963057370105	0.9762460541498222	0.0
274	2.3620689655172415	8.431856496236135	0.8863906224360714	0.0	8.377877844061063	0.893853330773473	0.0	8.406098833917364	0.4839734213689397	0.0	8.127329728745321	0.14343622503395248	0.0	8.256398157377053	0.0022914800994035213	0.0	8.199665903523433	0.008690439197529739	0.0	8.053641734119322	0.12041207156380812	0.0	8.489273042842328	0.8919218774659654	0.0	8.685597954727351	0.5482545585436146	0.0	8.338207722434975	0.4012844628881171	0.0	8.359958330646952	0.2498863151160567	0.0	8.352790857716052	0.2850926539073149	0.0	8.264611105543143	0.40741017999057594	0.0	8.607692003204878	1.4310062188329686	0.0	8.760708440663628	1.6621899991476046	0.0	8.770767898003333	1.5172745059354353	0.0	8.600246212913035	1.3807728630156026	0.0	8.618816555407575	1.0947422210967117	0.0	8.846843946053628	1.0664894831386618	0.0	8.565140621049371	1.3923064146386552	0.0	8.372624318096305	1.1701035649264628	0.0	8.379677410116377	0.9802668922394095	0.0
275	2.3706896551724137	8.48388273940657	0.8843314843593454	0.0	8.42556619407648	0.8912680441810908	0.0	8.429548573297453	0.4835914099767889	0.0	8.136137207187584	0.15114097019564413	0.0	8.254157634541045	0.0029062121440698733	0.0	8.196971994920812	0.012254268051861502	0.0	8.062036189010056	0.13011604973753915	0.0	8.547810415113544	0.8900316599651874	0.0	8.757708395570285	0.5609657395194059	0.0	8.424213071060448	0.38275703028272645	0.0	8.463191595853127	0.2267013543028911	0.0	8.456078010175302	0.26556706203834834	0.0	8.350315929745696	0.3811284636921447	0.0	8.655075525355686	1.4343903127335953	0.0	8.80998240215612	1.6663862488090428	0.0	8.818748943359214	1.5204801440994	0.0	8.658315365491191	1.3845760207715898	0.0	8.683547189638231	1.0990840344043693	0.0	8.909547884156156	1.0885353373626179	0.0	8.60514191232714	1.3968344840302085	0.0	8.41033767728205	1.1783012639183217	0.0	8.397186200853776	0.9833298869436997	0.0
276	2.3793103448275863	8.536552864059006	0.883418401656357	0.0	8.474675344057308	0.8897066508244036	0.0	8.454990330190437	0.4847408899054614	0.0	8.147761790010893	0.16036068812122176	0.0	8.25289906208249	0.005054703334938472	0.0	8.196149266554315	0.01734512989101164	0.0	8.073713649212342	0.14174144883856932	0.0	8.605725753312244	0.8893037125404223	0.0	8.827081665906903	0.5734071685846064	0.0	8.510344575803268	0.36294879495797505	0.0	8.566015209351125	0.20328969726915697	0.0	8.55889647033738	0.24529197241990316	0.0	8.436707080392981	0.3536284050719429	0.0	8.70294801811495	1.438441747054455	0.0	8.85968866554536	1.670755073124142	0.0	8.86722307169272	1.5239223883006916	0.0	8.716711543983298	1.3889186943521639	0.0	8.747129502143387	1.1042295145386631	0.0	8.969052917288934	1.1075070196618297	0.0	8.645427151306253	1.4015143219129464	0.0	8.449592626273434	1.1861805265348282	0.0	8.418585606005136	0.9859009940395431	0.0
277	2.3879310344827585	8.589802099944283	0.8837924879582164	0.0	8.525179295567368	0.8894098492827329	0.0	8.482895381879112	0.48725581029286485	0.0	8.16261474693403	0.1712138673967101	0.0	8.253001100732263	0.009158944667952968	0.0	8.197644207655939	0.0243176239640892	0.0	8.089065662848233	0.15541521476230155	0.0	8.662914673544005	0.8898252834478554	0.0	8.893526063309169	0.5851307199146825	0.0	8.59632625047487	0.3423577162205562	0.0	8.668371131419507	0.1805443175657806	0.0	8.660857364868669	0.2248032956473486	0.0	8.523476758755752	0.32574918252062374	0.0	8.751414126142816	1.442966939968022	0.0	8.90979574882063	1.6751411720920704	0.0	8.916220061657045	1.5274616487907073	0.0	8.775153983021392	1.3936056341751046	0.0	8.809295338998906	1.1099094103920912	0.0	9.025513465365135	1.1226134394499345	0.0	8.686177931458884	1.4061340064144983	0.0	8.490494739639882	1.1932580477337276	0.0	8.445418503786982	0.9882732403839576	0.0
278	2.396551724137931	8.643453624980827	0.8854208953995757	0.0	8.576994187440242	0.8904589597001581	0.0	8.513761794292302	0.4907948993000725	0.0	8.181051167502973	0.18384463257534947	0.0	8.25490308409715	0.015678608024030153	0.0	8.20192418926251	0.033577526339682334	0.0	8.10840650569701	0.17125586273310942	0.0	8.719193225041943	0.8915466829665469	0.0	8.95694919779646	0.5957491735579419	0.0	8.681795885058712	0.32153641806775013	0.0	8.769883075582763	0.15927879060279662	0.0	8.761454243675798	0.20475204656924548	0.0	8.610218125546979	0.29826851271439203	0.0	8.800560603215825	1.447753700823183	0.0	8.960238267463255	1.679417562077711	0.0	8.965744506196804	1.5309496135368452	0.0	8.833420468950415	1.398421039946077	0.0	8.869807169937996	1.115825174974318	0.0	9.079112323357032	1.1332667691646168	0.0	8.727483545674332	1.4104726027277943	0.0	8.533047414356462	1.1990385265668029	0.0	8.478534043550614	0.9905666245589313	0.0
279	2.405172413793103	8.697248724644963	0.8881197157905302	0.0	8.62997019870021	0.8927707658495365	0.0	8.54807117368234	0.49487724465872446	0.0	8.203360278763167	0.19842539954629068	0.0	8.259115168167275	0.02507904961560468	0.0	8.209464962719986	0.04555374610192696	0.0	8.131976563490099	0.18935773726188204	0.0	8.774336904075856	0.8942983043683753	0.0	9.017346959262603	0.6049566072995199	0.0	8.766352223739535	0.30104181594735907	0.0	8.86983566853679	0.14016456907017108	0.0	8.860052993432465	0.18583349552299475	0.0	8.696443714410245	0.2718698321036999	0.0	8.850437208109765	1.452596756947781	0.0	9.010931258797703	1.6834877306373126	0.0	9.015769909339289	1.5342414397185267	0.0	8.89133785621334	1.4031482237823059	0.0	8.928472440216737	1.1216897581634515	0.0	9.130041165767464	1.1390862127001693	0.0	8.769390259077449	1.4143430016612988	0.0	8.577202210306968	1.2031129300507744	0.0	8.51820635700372	0.9927895952918556	0.0
